<?xml version="1.0" encoding="utf-8"?>
<!-- Generator: Adobe Illustrator 27.9.0, SVG Export Plug-In . SVG Version: 6.00 Build 0)  -->
<svg version="1.1" id="Layer_1" xmlns="http://www.w3.org/2000/svg" xmlns:xlink="http://www.w3.org/1999/xlink" x="0px" y="0px"
	 viewBox="0 0 971.45 464.47" style="enable-background:new 0 0 971.45 464.47;" xml:space="preserve">
<style type="text/css">
	.st0{fill:#EA2227;}
</style>
<g>
	<path d="M209.18,34.74c-10.75-10.6-23.53-19.03-38.31-25.28C156.07,3.2,139.85,0.05,122.2,0c-17.66-0.05-33.97,3.02-48.91,9.22
		c-14.96,6.2-27.85,14.69-38.67,25.5C23.79,45.53,15.31,58.1,9.19,72.42C3.06,86.75,0,102.12,0,118.54v0.66
		c0,16.42,3.01,31.8,9.03,46.13c6.02,14.33,14.44,26.8,25.26,37.4c10.82,10.6,23.65,19,38.51,25.21c14.84,6.2,31.09,9.29,48.75,9.26
		c17.65-0.03,33.92-3.17,48.83-9.41c14.89-6.24,27.72-14.77,38.48-25.58c10.75-10.8,19.16-23.34,25.24-37.62
		c6.07-14.27,9.11-29.59,9.11-45.93V118c0-16.35-2.99-31.66-8.95-45.94C228.29,57.78,219.93,45.33,209.18,34.74 M190.76,119.28
		c0,9.81-1.69,19.03-5.06,27.65c-3.37,8.62-8.05,16.2-14.03,22.75c-5.99,6.55-13.22,11.69-21.71,15.4
		c-8.49,3.72-17.75,5.58-27.77,5.59c-10.25,0.01-19.57-1.89-27.96-5.71c-8.4-3.81-15.71-9-21.93-15.56
		c-6.22-6.56-11.03-14.21-14.41-22.95c-3.39-8.74-5.08-18.04-5.08-27.88v-0.66c0-9.84,1.69-19.08,5.08-27.72
		c3.38-8.63,8.08-16.23,14.09-22.78c6-6.55,13.2-11.67,21.61-15.37c8.39-3.7,17.72-5.54,27.96-5.52
		c10.02,0.02,19.28,1.95,27.77,5.78c8.49,3.84,15.83,9.03,22.03,15.58c6.2,6.56,10.98,14.2,14.35,22.93
		c3.37,8.73,5.06,18,5.06,27.82V119.28z"/>
	<path d="M475.27,175.34v-74.81l40.63,0.03V58.28l-40.63-0.06v-44.6l-49.1-0.12v44.64l-18.24-0.03l-2.46,0l-46.76-0.07v97.3
		c0,11.72-2.76,20.57-8.27,26.53c-5.51,5.97-13.03,8.96-22.54,8.97c-9.52,0.01-16.88-2.97-22.07-8.94
		c-5.2-5.96-7.79-14.82-7.79-26.55V57.94l-49.42-0.08v113.43c0,20.27,5.15,36.17,15.45,47.7c10.29,11.54,24.87,17.28,43.71,17.25
		c6.28-0.01,11.9-0.79,16.88-2.33c4.97-1.54,9.52-3.63,13.63-6.27c4.1-2.64,7.83-5.65,11.19-9.06c3.35-3.4,6.43-6.96,9.24-10.69v25
		l49.22-0.08V100.48l18.24,0.01v82.76c0,10.21,1.24,18.62,3.72,25.24c2.47,6.63,5.92,12,10.34,16.11c4.41,4.12,9.69,6.99,15.83,8.6
		c6.14,1.62,12.97,2.42,20.5,2.41c8.17-0.01,15.37-0.95,21.61-2.8c6.23-1.85,11.93-4.3,17.08-7.35v-39.69
		c-7.52,4.35-15.58,6.52-24.18,6.53C480.54,192.32,475.27,186.67,475.27,175.34"/>
	<g>
		<path d="M883.59,58.86L846.38,176.8L807.51,58.74l-39.1-0.06v-3.24c-14.48-0.67-25.98,2.55-34.5,9.66
			c-8.53,7.12-15.24,16.62-20.14,28.49v-35l-48.67-0.08v25.07c-7.94-8.67-17.06-15.54-27.39-20.57c-10.7-5.21-24.18-7.83-40.45-7.86
			c-13.28-0.02-25.45,2.35-36.49,7.09c-11.05,4.75-20.55,11.24-28.49,19.47c-7.95,8.23-14.18,17.87-18.69,28.93
			c-4.51,11.06-6.77,22.77-6.77,35.13v0.65c0,12.36,2.26,24.02,6.77,34.97c4.51,10.95,10.74,20.48,18.69,28.6
			c7.94,8.12,17.43,14.56,28.49,19.3c11.04,4.74,22.99,7.11,35.84,7.09c17.13-0.03,31.04-3.03,41.73-9
			c9.95-5.55,18.84-12.62,26.75-21.07v26.06l48.67-0.08v-64.17c0-20.96,4.64-36.4,13.91-46.34c9.27-9.92,22-14.89,38.18-14.88
			l2.55,0V90.55l54.72,142.22c-2.12,4.32-4.41,7.28-6.85,8.91c-2.45,1.62-5.79,2.44-10.04,2.45c-3.19,0.01-6.65-0.64-10.36-1.92
			c-3.72-1.29-7.18-2.9-10.37-4.84l-16.28,35.64c6.17,3.65,12.66,6.55,19.47,8.69c6.8,2.14,14.67,3.2,23.6,3.17
			c7.22-0.02,13.59-0.9,19.12-2.64c5.52-1.74,10.45-4.55,14.81-8.44c4.35-3.89,8.33-8.91,11.93-15.06c3.6-6.15,7-13.64,10.18-22.48
			l65.44-177.31L883.59,58.86z M638.35,175.31c-5.99,5.63-12.03,10.13-18.13,13.48c-6.1,3.36-13.22,5.04-21.36,5.05
			c-6.64,0.01-12.64-1.23-18-3.72c-5.36-2.48-9.97-5.89-13.83-10.22c-3.86-4.33-6.81-9.42-8.85-15.27
			c-2.04-5.85-3.06-12.13-3.06-18.85v-0.65c0-6.5,1.01-12.62,3.06-18.36c2.04-5.74,4.93-10.78,8.68-15.11
			c3.75-4.33,8.15-7.74,13.18-10.23c5.03-2.49,10.66-3.73,16.87-3.72c8.78,0.01,16.11,1.75,22,5.21c5.88,3.47,11.6,8.12,17.17,13.97
			l28.99-31.53v117.3L638.35,175.31z"/>
	</g>
	<path class="st0" d="M933.84,155.24c-20.8,0-37.67,17.16-37.67,38.32c0,21.16,16.87,38.29,37.67,38.25
		c20.78-0.03,37.61-17.19,37.61-38.32C971.45,172.36,954.62,155.23,933.84,155.24"/>
	<g>
		<polygon points="425.98,425.11 410.96,362.54 490.26,303.92 474.99,303.92 408.25,354.24 397.25,303.92 397.25,303.92 
			71.13,302.96 55.04,330.37 389.72,330.89 394.48,350.41 43.58,349.89 27.5,377.3 374.55,377.82 348.13,397.26 16.09,396.74 
			0,424.15 221.15,425.12 221.05,425.19 327.65,425.11 401.03,369.91 412.68,425.11 		"/>
		<path d="M589.33,351.4c1.9-7.39,2.44-14.17,1.63-20.35c-0.82-6.16-2.77-11.45-5.88-15.88c-3.1-4.42-7.22-7.86-12.35-10.33
			c-5.13-2.47-11.09-3.7-17.87-3.7c-10.48,0-20.5,2.54-30.07,7.64c-9.6,5.11-18.33,11.24-26.2,18.4l12.73-23.27h-11.34
			l-87.73,160.55h11.73l38.66-70.85c0.35,4.34,1.28,8.6,2.78,12.79c1.5,4.2,3.74,7.92,6.71,11.16c2.97,3.25,6.84,5.84,11.6,7.79
			c4.77,1.95,10.56,2.93,17.37,2.93c9.03,0,18.2-2,27.5-5.98c9.28-3.98,17.99-9.44,26.12-16.39c8.11-6.92,15.22-15.07,21.33-24.43
			C582.15,372.18,586.57,362.14,589.33,351.4z M549.31,397.32c-6.53,5.93-13.69,10.66-21.5,14.2c-7.82,3.54-15.84,5.31-24.06,5.31
			c-6.17,0-11.51-1.13-16.02-3.38c-4.51-2.25-8.08-5.31-10.71-9.16c-2.63-3.85-4.2-8.37-4.72-13.56
			c-0.51-5.18,0.06-10.71,1.71-16.58c2.26-8.06,6.17-15.86,11.71-23.4c5.52-7.51,11.87-14.11,19.03-19.79
			c7.15-5.67,14.71-10.24,22.71-13.72c7.98-3.48,15.68-5.21,23.09-5.21c5.41,0,10.09,0.97,14.07,2.89c3.97,1.93,7.12,4.68,9.44,8.23
			c2.32,3.57,3.71,7.88,4.18,12.94c0.46,5.07-0.09,10.66-1.68,16.77c-2.17,8.34-5.62,16.34-10.36,24.02
			C561.45,384.59,555.82,391.41,549.31,397.32z"/>
		<path d="M684.61,314.59h0.93l6.22-12.53c-6.25-0.31-12.38,0.35-18.4,1.97c-6.03,1.62-11.92,3.98-17.7,7.07
			c-5.78,3.1-11.49,6.94-17.11,11.53c-5.64,4.6-11.08,9.63-16.33,15.1l17.28-33.82h-11.34l-62.77,121.2h11.64l26.06-50.43
			c4.95-9.69,10.71-18.27,17.27-25.76c6.53-7.46,13.42-13.73,20.65-18.81c7.22-5.06,14.59-8.92,22.12-11.56
			C670.64,315.91,677.8,314.59,684.61,314.59z"/>
		<path d="M720.46,411.98c-6.94,3.08-14.99,4.61-24.15,4.61c-6.01,0-11.24-0.96-15.68-2.9c-4.44-1.93-7.98-4.7-10.59-8.32
			c-2.61-3.61-4.31-7.89-5.09-12.84c-0.79-4.94-0.43-10.51,1.05-16.7c0.3-1.26,0.66-2.61,1.08-4.04c0.42-1.42,0.86-2.77,1.32-4.03
			h98.3c3.57-6.34,6.19-13.37,7.87-21.09c1.33-6.12,1.67-11.96,1.01-17.5c-0.65-5.53-2.42-10.39-5.28-14.58
			c-2.87-4.18-6.81-7.47-11.83-9.86c-5.02-2.39-11.23-3.59-18.63-3.59c-9.56,0-18.99,2.12-28.31,6.37
			c-9.34,4.26-17.93,9.88-25.78,16.87c-7.88,7.02-14.65,15.04-20.33,24.07c-5.69,9.07-9.7,18.37-12.01,27.9
			c-1.82,7.5-2.19,14.42-1.13,20.76c1.07,6.36,3.38,11.84,6.93,16.45c3.56,4.62,8.25,8.19,14.06,10.71
			c5.82,2.52,12.61,3.78,20.38,3.78c10.93,0,20.55-1.92,28.85-5.73c8.29-3.81,16.18-8.39,23.68-13.73l-4.98-8.46
			C734.31,404.96,727.39,408.91,720.46,411.98z M684.67,339.73c4.58-5.56,9.69-10.44,15.33-14.65c5.63-4.2,11.58-7.5,17.87-9.91
			c6.27-2.4,12.73-3.6,19.37-3.6c5.72,0,10.44,0.97,14.19,2.9c3.74,1.94,6.64,4.54,8.7,7.81c2.07,3.27,3.28,7.05,3.66,11.35
			c0.37,4.31,0.02,8.89-1.05,13.76c-0.49,2.21-0.99,4.13-1.51,5.79c-0.52,1.66-1.06,3.04-1.61,4.14h-86.61
			C676.19,351.17,680.08,345.31,684.67,339.73z"/>
		<path d="M848.26,380.54c-0.58-2.95-1.9-5.74-3.94-8.36c-2.05-2.62-4.89-5.12-8.54-7.5c-3.64-2.38-8.17-4.75-13.59-7.12
			c-5.14-2.21-9.22-4.26-12.23-6.15c-3.02-1.89-5.35-3.74-6.98-5.55c-1.63-1.8-2.6-3.65-2.89-5.53c-0.3-1.88-0.2-3.99,0.3-6.34
			c0.6-2.81,1.84-5.54,3.72-8.2c1.87-2.64,4.31-5.02,7.31-7.12c2.99-2.1,6.55-3.76,10.68-5c4.12-1.24,8.65-1.86,13.6-1.86
			c6.95,0,13.35,1.4,19.21,4.19c5.86,2.79,10.66,6.06,14.42,9.79l9.13-8.63c-4.12-4.19-9.65-7.86-16.58-11.03
			c-6.93-3.16-14.54-4.75-22.87-4.75c-6.63,0-12.83,0.89-18.6,2.66c-5.77,1.78-10.9,4.25-15.4,7.42c-4.5,3.18-8.27,6.86-11.3,11.06
			c-3.04,4.21-5.06,8.65-6.06,13.34c-1.69,7.84-0.33,14.13,4.1,18.86c4.43,4.74,11.88,9.25,22.35,13.53
			c4.74,1.91,8.6,3.81,11.56,5.72c2.96,1.91,5.23,3.82,6.79,5.73c1.56,1.92,2.53,3.91,2.88,5.99c0.36,2.08,0.3,4.32-0.19,6.73
			c-0.75,3.69-2.33,7.03-4.74,10c-2.42,2.98-5.31,5.56-8.67,7.74c-3.37,2.18-7.07,3.84-11.09,4.97c-4.03,1.14-7.94,1.7-11.73,1.7
			c-8.06,0-15.49-1.5-22.27-4.49c-6.78-2.99-12.76-7.79-17.94-14.39l-10.13,8.45c5.38,7.11,12.12,12.46,20.21,16.02
			c8.1,3.57,16.91,5.37,26.41,5.37c6.18,0,12.19-0.94,18.05-2.81c5.84-1.87,11.17-4.47,15.99-7.79c4.81-3.32,8.89-7.28,12.22-11.88
			c3.33-4.59,5.52-9.54,6.58-14.83C848.76,386.81,848.84,383.49,848.26,380.54z"/>
		<path d="M953.3,306.12c-6.99-3.16-14.64-4.75-22.96-4.75c-6.63,0-12.81,0.89-18.54,2.66c-5.74,1.78-10.82,4.25-15.25,7.42
			c-4.44,3.18-8.13,6.86-11.08,11.06c-2.95,4.21-4.88,8.65-5.8,13.34c-1.53,7.84-0.05,14.13,4.47,18.86
			c4.52,4.74,12.06,9.25,22.62,13.53c4.78,1.91,8.68,3.81,11.68,5.72c3,1.91,5.3,3.82,6.91,5.73c1.6,1.92,2.6,3.91,3,5.99
			c0.4,2.08,0.38,4.32-0.05,6.73c-0.67,3.69-2.19,7.03-4.54,10c-2.36,2.98-5.2,5.56-8.52,7.74c-3.33,2.18-6.99,3.84-10.99,4.97
			c-4.01,1.14-7.9,1.7-11.7,1.7c-8.06,0-15.52-1.5-22.36-4.49c-6.84-2.99-12.91-7.79-18.22-14.39l-9.96,8.45
			c5.52,7.11,12.37,12.46,20.53,16.02c8.17,3.57,17.01,5.37,26.52,5.37c6.18,0,12.18-0.94,17.99-2.81
			c5.81-1.87,11.09-4.47,15.84-7.79c4.74-3.32,8.74-7.28,11.98-11.88c3.24-4.59,5.33-9.54,6.29-14.83c0.66-3.68,0.67-7,0.03-9.95
			c-0.64-2.95-2.01-5.74-4.11-8.36c-2.1-2.62-5-5.12-8.69-7.5c-3.69-2.38-8.27-4.75-13.73-7.12c-5.18-2.21-9.3-4.26-12.36-6.15
			c-3.06-1.89-5.42-3.74-7.09-5.55c-1.67-1.8-2.67-3.65-3-5.53c-0.34-1.88-0.28-3.99,0.18-6.34c0.54-2.81,1.72-5.54,3.56-8.2
			c1.82-2.64,4.21-5.02,7.17-7.12c2.95-2.1,6.48-3.76,10.58-5c4.1-1.24,8.61-1.86,13.56-1.86c6.95,0,13.38,1.4,19.29,4.19
			c5.91,2.79,10.79,6.06,14.61,9.79l8.96-8.63C965.9,312.97,960.29,309.29,953.3,306.12z"/>
	</g>
</g>
</svg>
